<?xml version="1.0" encoding="UTF-8"?>
<svg data-name="Layer 1" version="1.1" viewBox="0 0 1623.2 251.36" xmlns="http://www.w3.org/2000/svg" xmlns:xlink="http://www.w3.org/1999/xlink">
 <defs>
  <style>.cls-1{fill:url(#linear-gradient);}.cls-2{fill:url(#linear-gradient-2);}.cls-3{fill:#fff;}.cls-4{fill:url(#linear-gradient-3);}.cls-5{fill:url(#linear-gradient-4);}.cls-6{fill:url(#linear-gradient-5);}.cls-7{fill:url(#linear-gradient-6);}.cls-8{fill:url(#linear-gradient-7);}</style>
  <linearGradient id="linear-gradient" x1="637.03" x2="637.03" y1="456.52" y2="207.31" gradientTransform="translate(0,8)" gradientUnits="userSpaceOnUse">
   <stop stop-color="#6a0080" offset="0"/>
   <stop stop-color="#e35ce1" offset="1"/>
  </linearGradient>
  <linearGradient id="linear-gradient-2" x1="1455" x2="1455" y1="458.6" y2="235.02" xlink:href="#linear-gradient"/>
  <linearGradient id="linear-gradient-3" x1="627.39" x2="627.39" y1="438.05" y2="207.32" gradientTransform="translate(0,8)" gradientUnits="userSpaceOnUse">
   <stop stop-color="#fff" offset="0"/>
   <stop stop-color="#777" offset=".33"/>
   <stop stop-color="#d9d9d9" offset=".51"/>
   <stop stop-color="#efefef" offset=".53"/>
   <stop stop-color="#fff" offset="1"/>
  </linearGradient>
  <linearGradient id="linear-gradient-4" x1="1436.8" x2="1436.8" y1="440.12" y2="228.91" gradientTransform="translate(0,8)" gradientUnits="userSpaceOnUse">
   <stop stop-color="#e5b0ff" offset="0"/>
   <stop stop-color="#fff" offset="1"/>
  </linearGradient>
  <linearGradient id="linear-gradient-5" x1="685.99" x2="685.99" y1="456.74" y2="269.21" xlink:href="#linear-gradient"/>
  <linearGradient id="linear-gradient-6" x1="670.33" x2="670.33" y1="438.26" y2="267.36" xlink:href="#linear-gradient-3"/>
  <linearGradient id="linear-gradient-7" x1="670.61" x2="670.61" y1="396.77" y2="236.87" gradientTransform="translate(0,8)" gradientUnits="userSpaceOnUse">
   <stop stop-color="#838383" offset="0"/>
   <stop stop-color="#fff" offset=".83"/>
  </linearGradient>
  <linearGradient id="linearGradient4801" x1="637.03" x2="637.03" y1="456.52" y2="207.31" gradientTransform="translate(0,8)" gradientUnits="userSpaceOnUse" xlink:href="#linear-gradient"/>
  <linearGradient id="linearGradient4803" x1="627.39" x2="627.39" y1="438.05" y2="207.32" gradientTransform="translate(0,8)" gradientUnits="userSpaceOnUse" xlink:href="#linear-gradient-3"/>
 </defs>
 <title>logo</title>
 <g id="logo" transform="translate(-10.523 -215.31)">
  <g id="Shape_1_copy" data-name="Shape 1 copy">
   <path class="cls-1" d="m253.51 215.31-10.59 18.49q-5.37 0-6.32 5.37l-31.72 187.3c-0.28 1.63-1.08 2.44-2.38 2.44h-2.2a2.76 2.76 0 0 1-2.87-1.7l-60.59-179a60.88 60.88 0 0 0-4.79-7.44c4.35 5.56-20.81-21.74-20.81-21.74s3.72 14.79-0.19 14.79h-21.49q-11.24-0.02-17.56 5.18t-8.92 20.13l-52.54 185.29 19.58 20.1h29.34c3.58 0 5.69-1.78 6.32-5.36l31.72-187.31c0.28-1.62 1.08-2.44 2.38-2.44h2.2a3.4 3.4 0 0 1 2.87 1.71l46.94 168.68 19.36 24.72h41.32q11.24 0 17.53-5.24t8.9-20.12l34-200zm61 61-11.69 17.51c-3.75 0-5.93 1.79-6.57 5.36l-46.44 145.24 19.19 20.1h30c3.58 0 5.68-1.78 6.32-5.36l28.24-160zm214.32 7.39-154.49 10.09q-7.33 0-8.62 7.31l-44.72 143.32 17.7 20.1h150.6a67.11 67.11 0 0 0 21-2.92 40.2 40.2 0 0 0 14.79-8.42 40.87 40.87 0 0 0 9.55-13.29 72 72 0 0 0 5.3-17.56l2.5-14.15q3.83-21.71-11.29-31.46 17.48-10.49 21.09-31l2.05-11.72q3.57-20.23-5.28-30.24c-5.91-6.64-20.21-20.09-20.21-20.09zm-23 123.05-1.66 9.25q-1.38 7.8-6.16 11.34t-14.54 3.53h-100.12c-2.12 0-3-1.05-2.62-3.17l6.42-36.34h100.12q12.21 0 16 3.9t2.53 11.46zm11.17-64.67-1.47 8.29a16.11 16.11 0 0 1-6.28 10.74q-5.06 3.66-17.25 3.65h-100.16l6-34.14a3.43 3.43 0 0 1 3.73-3.17h99.88q9.52 0 13.17 3.53t2.38 11.1zm499.61-65.8-11.23 17.51q-5.37 0-6.32 5.36l-22.51 127.32c-0.29 1.63-1.08 2.44-2.38 2.44h-2.17a2.76 2.76 0 0 1-2.87-1.7l-69.83-119a62.1 62.1 0 0 0-4.79-7.44c-1.46-1.87-21.09-21.69-21.09-21.69l5.54 14.78h-5.45-21.51q-11.24 0-17.53 5.24t-8.92 20.12l-43.62 125.2 18.94 20.1h30.26c3.58 0 5.69-1.78 6.32-5.36l22.48-127.32c0.28-1.63 1.08-2.44 2.38-2.44h2.2a3.4 3.4 0 0 1 2.87 1.71l59.62 111.46s14 13.43 15.57 15.25a17.07 17.07 0 0 0 5 4.26 18 18 0 0 0 6.36 2 74.62 74.62 0 0 0 9.32 0.48h21q11.24 0 17.53-5.24t8.93-20.12l24.71-140c0.63-3.62-18.84-22.92-18.84-22.92zm228.18 0-109.5 17.51q-18.55 0-32.12 3.53a60.76 60.76 0 0 0-23.17 11.22 57.15 57.15 0 0 0-15.47 19.88q-5.94 12.21-9 29.76l-7.41 41.95c-2.07 11.71-3.82 37.82-3.82 37.82s6.22 6.94 10.77 12.06 10.94 8.82 19.16 11.1 18.53 3.41 30.9 3.41h98.66q14.64 0 24-8.41t12.92-28.9l10-56.84c0.86-4.87-19.78-24.8-19.78-24.8l-88.09 17.49q-5.37 0-6.36 5.61l-22 3.69 18.52 20.21h76.17q2.94 0 2.37 3.17l-3.54 19.76q-1.47 8.29-5 11.58t-9.86 3.3h-80.59a61.69 61.69 0 0 1-15.47-1.59 16.28 16.28 0 0 1-8.94-5.37q-3-3.76-3.44-10.24a69.27 69.27 0 0 1 1.3-16.18l6.21-35.12a74.71 74.71 0 0 1 4.42-16.1 27.48 27.48 0 0 1 7-10.12 25.32 25.32 0 0 1 10.84-5.37 69.32 69.32 0 0 1 16-1.58h122.34q5.37 0 6.36-5.61l4.22-23.91c0.74-3.61-18.63-22.91-18.63-22.91z" fill="url(#linearGradient4801)"/>
  </g>
  <g data-name="88 copy 2">
   <path class="cls-2" d="m1423.1 243s-25.25 3.54-27.42 3.13h-7.64q-2.15 0-5.86 0.31t-21.44 1.83q-17.71 1.54-36.58 16.52t-23.24 39.76q-6.21 35.18 17.59 47.72a38.84 38.84 0 0 0-9 4.43q-3.84 2.59-13.9 10.24a36.51 36.51 0 0 0-13.45 19.86q-3.39 12.24-4.25 17.12a101.76 101.76 0 0 0-0.73 30.31s32 28.27 45 29.9 22.06 2.45 27 2.45 14.11-0.82 27.66-2.45 27.11-7.94 40.68-18.95 21.8-24.67 24.68-41a76.11 76.11 0 0 0 1.09-8q1.75-22-11-34.85a34.66 34.66 0 0 0-12.46-9.17q27.85-12.22 34.12-47.7 4.42-25.08-9-39.9c-9.02-9.8-21.85-21.56-21.85-21.56zm-38.46 152.38a21.1 21.1 0 0 1-7.26 12.53q-6 5.2-11.31 6a64.12 64.12 0 0 1-8.7 0.77q-9.8 0-14.31-4.74t-5.09-13.6q3.22-18.35 22.08-21.09h9.79q15.73 2.75 15.2 16.2a19.18 19.18 0 0 1-0.4 3.93zm11.45-80.38q-1.85 10.41-8.81 13.48a32.69 32.69 0 0 1-13.09 3.06q-9.18 0-12.5-2a13.76 13.76 0 0 1-6.3-14.55 73.47 73.47 0 0 1 2.81-9q2.44-6.89 17.21-9h7q7.74 1.23 10.82 4.6t3.16 9.8a16.61 16.61 0 0 1-0.3 3.61zm236.54-10.41q4.42-25.08-9-39.9c-9-9.89-21.29-21.63-21.29-21.63s-25.76 3.54-27.93 3.13h-7.65q-2.15 0-5.86 0.31t-21.44 1.83q-17.72 1.54-36.58 16.52t-23.24 39.76q-6.21 35.18 17.59 47.72a38.84 38.84 0 0 0-9 4.43q-3.84 2.59-13.9 10.24a36.51 36.51 0 0 0-13.45 19.86q-3.39 12.24-4.25 17.12a98.5 98.5 0 0 0-0.22 31.24s31.45 27.34 44.52 29 22.06 2.45 27 2.45 14.11-0.82 27.66-2.45 27.11-7.94 40.68-18.95 21.8-24.67 24.68-41a79.59 79.59 0 0 0 1.1-8q1.74-22-11-34.85a34.58 34.58 0 0 0-12.46-9.17q27.77-12.25 34.04-47.7zm-69.28 90.83a21.1 21.1 0 0 1-7.26 12.53q-6 5.2-11.31 6a64 64 0 0 1-8.7 0.77q-9.8 0-14.31-4.74t-5.09-13.6q3.22-18.35 22.08-21.09h9.79q15.73 2.75 15.2 16.2a19.18 19.18 0 0 1-0.4 3.89zm11.45-80.42q-1.85 10.41-8.81 13.48a32.69 32.69 0 0 1-13.09 3.06q-9.18 0-12.5-2a13.76 13.76 0 0 1-6.3-14.55 73.47 73.47 0 0 1 2.81-9q2.45-6.89 17.21-9h7q7.74 1.23 10.82 4.6t3.16 9.8a16.61 16.61 0 0 1-0.3 3.61z" fill="url(#linear-gradient-2)"/>
  </g>
  <g data-name="88">
   <path class="cls-3" d="m1396.7 229.81q-16.25-1.51-19.51-2.14h-7.65c-1.43 0-3.39 0.11-5.87 0.31s-9.63 0.82-21.44 1.84-24 6.52-36.58 16.51-20.32 23.25-23.24 39.76q-6.21 35.18 17.6 47.72c-3.49 1.22 2.74 2.7 0.19 4.43s-7.18 5.15-13.9 10.24a36.53 36.53 0 0 0-13.45 19.87q-3.39 12.22-4.25 17.11c-2.92 16.51-8.76 24.72 0.92 35.72s21.07 17.32 34.14 18.95 22.06 2.45 27 2.45 14.12-0.82 27.67-2.45 17.87-7.94 31.44-18.95 21.8-19.13 24.68-35.43a79.72 79.72 0 0 0 1.09-7.95q1.74-22-11-34.86c-3.56-4.07 1.52-7.13-3.22-9.17q27.87-12.22 34.12-47.7 4.44-25.06-9-39.9t-29.74-16.36zm-25 147.73a26.73 26.73 0 0 1-9.11 15.86q-7.5 6.57-14.2 7.54a80.36 80.36 0 0 1-10.93 1q-12.3 0-18-6t-6.39-17.21q4.06-23.19 27.73-26.67h12.29q19.75 3.48 19.08 20.49a23.37 23.37 0 0 1-0.42 4.99zm11.17-80.89q-2.34 13.35-11.23 17.27a41.42 41.42 0 0 1-16.69 3.92q-11.71 0-16-2.55a17.68 17.68 0 0 1-8-18.64 96.26 96.26 0 0 1 3.59-11.57q3.12-8.83 22-11.58h9q9.87 1.58 13.8 5.89t4 12.56a21.25 21.25 0 0 1-0.42 4.7zm222.19-50.48q-13.44-14.83-29.7-16.36t-19.51-2.14h-7.65c-1.43 0-3.39 0.11-5.87 0.31s-9.63 0.82-21.44 1.84-24 6.52-36.58 16.51-20.32 23.25-23.24 39.76c-4.14 23.45 11 39.36 26.83 47.72a39 39 0 0 0-9 4.43q-3.84 2.6-13.9 10.24a36.53 36.53 0 0 0-13.45 19.87q-3.39 12.22-4.25 17.11-4.36 24.77 10.16 41.27c9.69 11 11.83 8.08 24.9 9.71s22.07 2.44 27 2.44 14.12-0.81 27.67-2.44 17.87 1.29 31.44-9.72 21.8-24.67 24.68-41a79.72 79.72 0 0 0 1.09-7.95q1.74-22-11-34.86a34.61 34.61 0 0 0-12.46-9.17c18.58-8.15 39.19-24 43.37-47.7q4.42-25.04-9.04-39.87zm-54.04 130.9a26.15 26.15 0 0 1-9.12 15.56q-7.5 6.47-14.21 7.4a81.87 81.87 0 0 1-10.94 1q-12.3 0-18-5.88t-6.39-16.89q4.07-22.77 27.74-26.18h12.3q19.77 3.41 19.09 20.11a22.4 22.4 0 0 1-0.47 4.88zm12-80.38q-2.47 13.9-11.83 18a44 44 0 0 1-17.57 4.09q-12.33 0-16.79-2.66a18.47 18.47 0 0 1-7-7.76 18.23 18.23 0 0 1-1.42-11.66 100.59 100.59 0 0 1 3.78-12.06q3.28-9.19 23.1-12.05h9.45q10.4 1.64 14.52 6.13t4.25 13.08a21.93 21.93 0 0 1-0.49 4.89z"/>
  </g>
  <g data-name="Shape 1 copy 2">
   <path class="cls-4" d="m250.09 215.32h-25.64c-3.59 0-5.69 1.79-6.33 5.37l-31.71 187.31c-0.29 1.62-1.08 2.44-2.39 2.44h-2.19a2.76 2.76 0 0 1-2.88-1.71l-59.66-179a63.77 63.77 0 0 0-4.79-7.44 18.08 18.08 0 0 0-4.85-4.39 16.78 16.78 0 0 0-6.47-2.07 79.84 79.84 0 0 0-9.68-0.49h-21.5q-11.24 0-17.53 5.25t-8.93 20.12l-34.88 200q-0.95 5.37 4.67 5.37h25.67q5.37 0 6.32-5.37l32.62-196.58c0.29-1.62 1.08-2.43 2.39-2.43h2.2a3.43 3.43 0 0 1 2.87 1.7l59.91 188.26a57.34 57.34 0 0 0 5.11 7.68 17.4 17.4 0 0 0 5 4.27 18.07 18.07 0 0 0 6.37 1.95 72.4 72.4 0 0 0 9.32 0.49h21q11.22 0 17.53-5.25t8.92-20.12l34-200q0.9-5.36-4.47-5.36zm60.6 60h-26.38q-5.61 0-6.56 5.37l-28.25 160c-0.63 3.58 0.92 5.37 4.67 5.37h26.37q5.37 0 6.32-5.37l28.25-160q0.95-5.38-4.42-5.38zm185.83 0h-140.66q-7.32 0-8.62 7.32l-27.55 156.1q-1.31 7.32 6 7.32h145a67.09 67.09 0 0 0 21-2.93 40.45 40.45 0 0 0 14.8-8.41 41.1 41.1 0 0 0 9.55-13.3 71.83 71.83 0 0 0 5.29-17.56l2.5-14.15q3.84-21.7-11.29-31.46c11.65-7 19.61-26.56 22-40.21l1.14-2.47q3.57-20.25-5.28-30.25t-33.88-10.01zm-9.19 112.93-1.64 9.27q-1.38 7.82-6.15 11.34t-14.54 3.53h-100.13q-3.18 0-2.61-3.17l6.41-36.35h100.13q12.19 0 16 3.91t2.53 11.46zm12.09-73.87-2.42 17.52a16.06 16.06 0 0 1-6.29 10.73q-5 3.66-17.25 3.66h-100.09l6.95-43.39a3.43 3.43 0 0 1 3.73-3.17h99.88q9.52 0 13.17 3.54t2.32 11.1zm513.1-39.06h-25.65c-3.58 0-5.68 1.79-6.32 5.37l-22.48 127.31c-0.28 1.62-1.08 2.44-2.38 2.44h-2.19a2.76 2.76 0 0 1-2.88-1.71l-68.9-119a60.8 60.8 0 0 0-4.8-7.44 17.9 17.9 0 0 0-4.84-4.39 16.78 16.78 0 0 0-6.47-2.07 79.84 79.84 0 0 0-9.68-0.49h-21.49q-11.24 0-17.53 5.25t-8.91 20.09l-25.64 140q-0.95 5.37 4.67 5.37h25.64q5.37 0 6.32-5.37l23.4-136.56c0.29-1.62 1.08-2.44 2.39-2.44h2.22a3.44 3.44 0 0 1 2.87 1.71l69.13 128.27a57.34 57.34 0 0 0 5.11 7.68 17.4 17.4 0 0 0 5 4.27 18.07 18.07 0 0 0 6.37 1.95 72.4 72.4 0 0 0 9.32 0.49h21q11.22 0 17.53-5.25t8.92-20.12l24.72-140c0.6-3.58-0.88-5.37-4.45-5.37zm227.15 0h-123.81q-18.55 0-32.12 3.54a60.76 60.76 0 0 0-23.11 11.22 57.06 57.06 0 0 0-15.47 19.92q-5.94 12.19-9 29.75l-6.48 42q-3.11 17.55-1.49 29.87t8.43 20q6.83 7.7 19.17 11.1t30.89 3.42h98.66q14.65 0 24-8.42t12.92-28.9l10-56.83q1.29-7.32-6-7.32h-101.92c-3.58 0-5.71 1.87-6.37 5.61l-3.22 18.29c-0.67 3.75 0.79 5.61 4.38 5.61h71.55q2.92 0 2.37 3.17l-3.49 19.65c-1 5.53-2.63 9.39-5 11.59s-5.62 3.29-9.86 3.29h-80.58a61.58 61.58 0 0 1-15.47-1.59 16.32 16.32 0 0 1-9-5.36q-3-3.78-3.44-10.25a68.84 68.84 0 0 1 1.28-16.22l7.12-44.36a74.56 74.56 0 0 1 4.43-16.09 27.49 27.49 0 0 1 7-10.13 25.27 25.27 0 0 1 10.83-5.36 68.81 68.81 0 0 1 16-1.59h122.34q5.37 0 6.36-5.61l2.37-14.66c0.79-3.56-0.69-5.35-4.27-5.35z" fill="url(#linearGradient4803)"/>
  </g>
  <g data-name="88 copy 3">
   <path class="cls-5" d="m1396.7 239.05q-16.25-1.53-19.51-2.14h-7.65c-1.43 0-3.39 0.11-5.87 0.31s-9.63 0.81-21.44 1.84-24 6.52-36.58 16.51-20.32 14-23.24 30.52q-6.21 35.18 17.6 47.72a38.92 38.92 0 0 0-9 4.43q-3.82 2.6-13.9 10.24a36.58 36.58 0 0 0-13.45 19.87q-3.39 12.22-4.25 17.11-4.36 24.77 10.16 41.27t34.14 18.95q19.62 2.43 27 2.44t27.67-2.44q20.32-2.44 40.68-19t24.67-41a77.44 77.44 0 0 0 1.1-7.95q1.74-22-11-34.86a34.69 34.69 0 0 0-12.46-9.17q27.87-12.22 34.12-47.7c3-16.71-0.05-20.78-9-30.66s-18.96-15.27-29.79-16.29zm-30.56 137.86a21.12 21.12 0 0 1-7.26 12.53c-4 3.46-7.75 5.45-11.3 6a63.85 63.85 0 0 1-8.71 0.76q-9.8 0-14.31-4.74t-5.09-13.6q3.24-18.33 22.08-21.09h9.79q15.73 2.76 15.2 16.2a18 18 0 0 1-0.4 3.94zm11.45-80.43q-1.85 10.42-8.81 13.48a32.54 32.54 0 0 1-13.09 3.07q-9.18 0-12.5-2a13.78 13.78 0 0 1-6.3-14.55 73.7 73.7 0 0 1 2.82-9q2.43-6.9 17.2-9h7q7.74 1.23 10.81 4.6t3.17 9.8a16.11 16.11 0 0 1-0.3 3.6zm236.55-10.41c3-16.71-0.06-20.78-9-30.66s-18.86-15.34-29.7-16.36-17.34-1.73-19.51-2.14h-7.65c-1.43 0-3.39 0.11-5.87 0.31s-9.63 0.81-21.44 1.84-24 6.52-36.58 16.51-20.32 14-23.24 30.52q-6.21 35.18 17.6 47.72a38.92 38.92 0 0 0-9 4.43q-3.83 2.6-13.9 10.24a36.58 36.58 0 0 0-13.45 19.87q-3.39 12.22-4.25 17.11-4.36 24.77 10.16 41.27t34.14 18.95q19.62 2.43 27 2.44t27.67-2.44q20.32-2.44 40.68-19t24.67-41a77.44 77.44 0 0 0 1.1-7.95q1.74-22-11-34.86a34.69 34.69 0 0 0-12.46-9.17q27.77-12.15 34.03-47.63zm-69.29 90.84a21.12 21.12 0 0 1-7.26 12.53c-4 3.46-7.75 5.45-11.3 6a63.85 63.85 0 0 1-8.71 0.76q-9.8 0-14.31-4.74t-5.09-13.6q3.24-18.33 22.08-21.09h9.76q15.73 2.76 15.2 16.2a18 18 0 0 1-0.37 3.94zm11.45-80.43q-1.85 10.42-8.81 13.48a32.54 32.54 0 0 1-13.08 3.07c-6.13 0-10.29-0.67-12.51-2a13.78 13.78 0 0 1-6.3-14.55 73.7 73.7 0 0 1 2.82-9q2.43-6.9 17.2-9h7q7.74 1.23 10.81 4.6t3.17 9.8a16.11 16.11 0 0 1-0.3 3.6z" fill="url(#linear-gradient-4)"/>
  </g>
  <g data-name="Rounded Rectangle 1 copy 2">
   <path class="cls-6" d="m781.93 277.21-13.86 16.62a8.09 8.09 0 0 0-7.63 6.47s-5.94 33.52-15.18 83.41a55.55 55.55 0 0 1-3.38 11.4c-12.5 24.06-47.88 37.05-78.54 36.89s-56.77-12.76-50-49.2c14.48-78.21 15-82.54 15-82.54 0.66-3.53-16.34-23.05-16.34-23.05l-13.86 16.62a8.09 8.09 0 0 0-7.63 6.47l-15 82.46s-21 82 79.92 82c1.29 0 2.56 0 3.82-0.08 0.81 0 1.69 0.08 2.64 0.08 81.89 0 114.67-44.09 121.29-80.92 6.67-37.08 15.2-83.52 15.2-83.52 0.62-3.59-16.45-23.11-16.45-23.11z" fill="url(#linear-gradient-5)"/>
  </g>
  <g id="Rounded_Rectangle_1_copy" data-name="Rounded Rectangle 1 copy">
   <path class="cls-7" d="m777.31 275.36h-24.94a8.08 8.08 0 0 0-7.63 6.46s-5.94 33.52-15.18 83.41a56.18 56.18 0 0 1-3.38 11.4c-12.5 24.07-47.89 37.05-78.54 36.94s-56.77-12.77-50-49.2c14.47-78.22 15-82.55 15-82.55a5.25 5.25 0 0 0-5.3-6.46h-25a8.07 8.07 0 0 0-7.62 6.46l-15 82.47s-21 82 79.91 82c1.29 0 2.56 0 3.82-0.07 0.82 0.05 1.7 0.07 2.65 0.07 81.88 0 114.67-44.09 121.29-80.92 6.66-37.08 15.19-83.52 15.19-83.52a5.25 5.25 0 0 0-5.27-6.49z" fill="url(#linear-gradient-6)"/>
  </g>
  <g data-name="Shape 3">
   <path class="cls-8" d="m647.05 349.26s-39.11 30.64-41.57 32.34c3.39 21.09 33.26 26.63 62.82 21.24-32.03-14.01-21.25-53.58-21.25-53.58zm-18.47-104.39-7.4 36.95h42.5l-49 39.73-9.24 49 80.37-62.82-9.2 44.27h39.73l19.4-107.16z" fill="url(#linear-gradient-7)"/>
  </g>
 </g>
</svg>
